<svg width="417" height="510" viewBox="0 0 417 510" fill="none" xmlns="http://www.w3.org/2000/svg">
<path d="M0 327.525V481.991C39.4935 491.895 72.1464 500.083 110.331 509.659L122.59 431.59L110.331 353.522L56.7998 330.413L0 327.525Z" fill="url(#paint0_linear_4412_32)"/>
<path d="M110.331 24.5934V329.857L151.47 353.056L208.403 360.413L220.662 119.989L208.403 49.5655L159.367 24.9721L110.331 24.5934Z" fill="#5374E9"/>
<path d="M208.402 49.5655V340.413L257.438 334.829L306.474 309.857C306.474 306.041 306.474 28.4078 306.474 24.5934L257.438 24.9721L208.402 49.5655Z" fill="#6C8DFF"/>
<path d="M306.474 24.5938C294.542 27.632 220.256 46.5468 208.402 49.5654C196.47 46.527 122.184 27.6122 110.331 24.5938C122.273 21.5991 196.538 2.97529 208.402 0L306.474 24.5938Z" fill="#7CAEF8"/>
<path d="M110.331 353.522V509.659C122.501 506.607 196.408 488.073 208.403 485.066L220.662 407.74L208.403 330.414C193.927 331.121 163.45 332.609 154.872 333.028C149.462 335.516 115.76 351.024 110.331 353.522V353.522Z" fill="#6BCD49"/>
<path d="M208.403 330.413C196.469 333.226 122.187 350.728 110.331 353.521L0 327.525C13.426 324.158 96.9933 303.202 110.331 299.857C178.278 321.027 141.054 309.43 208.403 330.413Z" fill="#C9F87C"/>
<path d="M306.474 353.522L318.733 431.59L306.474 509.658C294.611 506.683 220.344 488.059 208.402 485.065C208.402 476.477 208.402 338.999 208.402 330.413L257.438 332.207L306.474 353.522Z" fill="#F39321"/>
<path d="M416.804 327.525V481.991C377.311 491.895 344.658 500.083 306.474 509.659C306.474 500.98 306.474 362.2 306.474 353.522L361.639 330.413L416.804 327.525Z" fill="#F3A141"/>
<path d="M416.805 327.525C403.387 330.687 319.919 350.354 306.474 353.522L257.438 341.967L208.402 330.414C228.704 324.088 244.823 319.065 257.619 315.08C316.885 296.613 304.822 300.372 306.474 299.857L416.805 327.525Z" fill="#F8C67C"/>
<defs>
<linearGradient id="paint0_linear_4412_32" x1="61.2948" y1="327.525" x2="61.2948" y2="509.659" gradientUnits="userSpaceOnUse">
<stop stop-color="#89F1FF"/>
<stop offset="1" stop-color="#6292DB"/>
</linearGradient>
</defs>
</svg>
