<svg width="402" height="491" viewBox="0 0 402 491" fill="none" xmlns="http://www.w3.org/2000/svg">
<path d="M401.545 315.534V464.345C363.497 473.886 332.04 481.775 295.254 491L283.443 415.789L295.254 340.579L346.825 318.316L401.545 315.534Z" fill="#5EBA3F"/>
<path d="M295.253 23.6929V317.781L255.62 340.13L200.772 347.218L188.962 115.596L200.772 47.7508L248.012 24.0577L295.253 23.6929Z" fill="#5374E9"/>
<path d="M200.772 47.7508V327.95L153.532 322.571L106.291 298.513C106.291 294.837 106.291 27.3677 106.291 23.6929L153.532 24.0577L200.772 47.7508Z" fill="#6C8DFF"/>
<path d="M200.773 0C189.268 2.88502 117.721 20.8272 106.292 23.6934C117.786 26.6203 189.347 44.8407 200.771 47.75V47.751H200.773V47.75C212.273 44.8216 283.834 26.6012 295.252 23.6934C283.748 20.8085 212.207 2.86736 200.773 0Z" fill="#7CAEF8"/>
<path d="M295.253 340.579V491C283.529 488.06 212.328 470.205 200.772 467.307L188.962 392.812L200.772 318.317C214.717 318.998 244.079 320.432 252.343 320.836C257.554 323.233 290.023 338.173 295.253 340.579V340.579Z" fill="#6BCD49"/>
<path d="M200.771 318.317C212.269 321.027 283.83 337.888 295.253 340.58V340.577L295.254 340.58C308.209 337.528 388.618 318.581 401.545 315.535C388.61 312.291 308.104 292.103 295.254 288.88L295.253 288.879C229.793 309.274 265.655 298.102 200.771 318.317Z" fill="#C9F87C"/>
<path d="M106.291 340.579L94.4811 415.789L106.291 490.999C117.72 488.133 189.268 470.191 200.772 467.306C200.772 459.033 200.772 326.588 200.772 318.316L153.532 320.045L106.291 340.579Z" fill="#F39321"/>
<path d="M0.000139177 315.534V464.345C38.0477 473.886 69.5052 481.775 106.292 491C106.292 482.639 106.292 348.94 106.292 340.579L53.1458 318.316L0.000139177 315.534Z" fill="#F3A141"/>
<path d="M106.291 288.88L0 315.534C12.9264 318.58 93.3354 337.526 106.291 340.578H106.292L153.532 329.448L200.772 318.317C181.214 312.224 165.685 307.384 153.357 303.544C96.2585 285.753 107.884 289.376 106.291 288.879V288.88Z" fill="#F8C67C"/>
</svg>
