<svg width="218" height="266" viewBox="0 0 218 266" fill="none" xmlns="http://www.w3.org/2000/svg">
<path d="M217.259 170.722V251.237C196.673 256.4 179.653 260.668 159.749 265.659L153.359 224.966L159.749 184.273L187.652 172.227L217.259 170.722Z" fill="url(#paint0_linear_4412_49)"/>
<path d="M159.749 12.8192V171.938L138.306 184.03L108.629 187.865L102.239 62.544L108.629 25.8359L134.189 13.0167L159.749 12.8192Z" fill="#5374E9"/>
<path d="M108.629 25.8359V177.44L83.0695 174.529L57.5097 161.513C57.5097 159.523 57.5097 14.8075 57.5097 12.8192L83.0695 13.0167L108.629 25.8359Z" fill="#F3A141"/>
<path d="M108.629 0C102.402 1.56141 63.6934 11.2687 57.5098 12.8193C63.7286 14.4029 102.448 24.261 108.629 25.835V25.8359C114.848 24.2523 153.571 14.3927 159.749 12.8193C153.525 11.2584 114.815 1.55115 108.63 0H108.629Z" fill="#F8C67C"/>
<path d="M159.749 184.273V265.659C153.405 264.068 114.882 254.408 108.629 252.84L102.239 212.534L108.629 172.228C116.175 172.596 132.061 173.372 136.532 173.59C139.352 174.887 156.919 182.971 159.749 184.273V184.273Z" fill="#6BCD49"/>
<path d="M108.629 172.227C114.85 173.693 153.569 182.817 159.749 184.273L217.259 170.722C210.26 168.967 166.701 158.044 159.749 156.3C124.332 167.335 143.735 161.29 108.629 172.227Z" fill="#C9F87C"/>
<path d="M57.5097 184.273L51.1197 224.965L57.5097 265.659C63.6935 264.108 102.405 254.4 108.629 252.839C108.629 248.363 108.629 176.703 108.629 172.227L83.0695 173.163L57.5097 184.273Z" fill="#5EBA3F"/>
<path d="M7.15256e-05 170.722V251.237C20.586 256.4 37.6063 260.668 57.5098 265.659C57.5098 261.135 57.5098 188.796 57.5098 184.273L28.7549 172.227L7.15256e-05 170.722Z" fill="#6BCD49"/>
<path d="M57.5103 156.3L0.000488281 170.722C6.99559 172.371 50.4988 182.621 57.5093 184.272H57.5103L83.0698 178.251L108.629 172.227C98.0473 168.93 89.6449 166.313 82.9751 164.235C60.0798 157.101 57.6068 156.331 57.5103 156.3Z" fill="#C9F87C"/>
<defs>
<linearGradient id="paint0_linear_4412_49" x1="185.309" y1="170.722" x2="185.309" y2="265.659" gradientUnits="userSpaceOnUse">
<stop stop-color="#89F1FF"/>
<stop offset="1" stop-color="#6292DB"/>
</linearGradient>
</defs>
</svg>
